# xmcd
#
# Track frame offsets:
#	150
#	15160
#	32123
#	48985
#	65709
#	78219
#	92896
#	108824
#	123317
#	141026
#	157638
#	177292
#
# Disc length: 2610 seconds
#
# Revision: 1
# Processed by: cddbd v1.5.2PL0 Copyright (c) Steve Scherf et al.
# Submitted via: audiograbber 1.83.01
#
DISCID=880a300c
DTITLE=Terri Clark - Pain to killxc
DYEAR=1900
DGENRE=Country
TTITLE0=I just wanna be mad
TTITLE1=Three Mississippi
TTITLE2=Pain to kill
TTITLE3=I just called to say goodbye
TTITLE4=I wanna do it all
TTITLE5=You can't help the one you love
TTITLE6=Almost gone 
TTITLE7=Working girl
TTITLE8=Better than you
TTITLE9=Not a bad thing
TTITLE10=The first to fall
TTITLE11=God and me
EXTD=
EXTT0=
EXTT1=
EXTT2=
EXTT3=
EXTT4=
EXTT5=
EXTT6=
EXTT7=
EXTT8=
EXTT9=
EXTT10=
EXTT11=
PLAYORDER=
